<svg xmlns="http://www.w3.org/2000/svg" xml:space="preserve" viewBox="0 0 595.3 595.3"><path fill="none" stroke="#365954" stroke-miterlimit="10" stroke-width="5.989" d="M283.6 554.1c8.2 14.1 32.6 14.6 41.4.8 4.7-7.3 5.1-16.7 10.3-23.6 6.8-9.1 19.4-11.3 30.8-12.8 9.3-1.2 18.5-2.4 27.8-3.7 6.8-.9 13.8-1.9 19.4-5.6 4.1-2.7 14.1-7.9 18.2-10.5 13-8.2-4.9-20.2-21.3-13.8-10.8 4.2-14.5 7.2-25.7 10.1-15.5 4-29.2 14.3-37.3 28"/><path fill="#F7B855" stroke="#F7B855" stroke-miterlimit="10" stroke-width="1.996" d="M282.2 27.2s-183-13.6-137 166.4c0 0 22.2 65.9 71.9 126.7 0 0 41.4 64.7 42.7 67.9 0 0 8 8.5 4.5 62.8l-3.4 67s-9 27.2-1.1 30.3c0 0 12.4 5.2 22.5 5.2s22.5-5.2 22.5-5.2c7.9-3.1-1.1-30.3-1.1-30.3l-3.4-67c-2.1-55.9 4.5-62.8 4.5-62.8 2.2-5 42.7-67.9 42.7-67.9 50.3-60.5 71.9-126.7 71.9-126.7 45.9-180-137.2-166.4-137.2-166.4zm-87.8 107.2c4.7-4.9 13.3-4.9 18.2 0 4.9 4.9 4.9 13.5 0 18.2-4.9 4.7-13.6 4.6-18.3-.4-4.5-4.7-4.5-13 .1-17.8zm17.8 57.5c-5 4.8-12.8 4.8-17.7.1-4.8-4.7-4.8-13.4 0-18.3 5-5 13.1-4.9 18.1.3 5.1 5.2 5 12.9-.4 17.9zm100.2-97c4.9-4.9 13.2-4.6 18.2.5s4.8 13.1-.4 18c-4.9 4.6-13 4.6-17.7-.1-4.7-4.7-4.8-13.7-.1-18.4zm.1 39.5c4.8-4.7 13-4.8 17.9-.2 5 4.7 5 13.3.1 18.3-5 4.9-12.6 4.9-17.6 0-5.3-5.2-5.5-13.1-.4-18.1zm0 78.3c5.1-5.2 12.8-5.4 17.9-.4 4.9 4.8 4.9 13.3.1 18.2-4.7 4.7-12.9 4.8-17.7.2-5.2-4.9-5.3-12.8-.3-18zm.4-39.2c4.8-4.5 13.1-4.5 17.8.1 4.7 4.6 4.6 13.7-.1 18.3-5.1 5-13.1 4.8-18.1-.3-5-5.2-4.8-13.2.4-18.1zm-39.5-78.6c4.9-4.7 13-4.6 17.8.1 5.1 4.9 4.9 13-.3 18.1-5.1 5-12.4 4.9-17.5-.2-5.2-5.1-5.2-13 0-18zm17.8 57.4c-5.1 5.2-12.9 5.2-18 .1-4.9-5-5-13.5-.1-18.2 4.6-4.4 13.3-4.4 18-.1 5 4.5 5 13.3.1 18.2zM273 173.9c4.7-4.9 13.4-5 18.2-.2 4.9 4.8 4.8 13.3-.2 18.2-4.9 4.8-12.6 4.9-17.6.1-5-5.1-5.3-13.1-.4-18.1zm18.1 57.5c-4.9 4.7-13.6 4.4-18.2-.5-4.8-5.1-4.4-13.3.8-18.1 5-4.6 13-4.4 17.7.4 4.8 4.9 4.7 13.4-.3 18.2zM233.8 95c4.6-4.7 13.8-4.6 18.4.1 4.4 4.6 4.4 13.2-.1 17.9-4.8 5.1-13.1 5.2-18.1.2-4.9-5-5-13.3-.2-18.2zm-.1 39.6c4.8-4.9 13.4-5.1 18.2-.4 5 4.9 4.9 13-.2 18.1-5.2 5.1-12.9 5.1-17.9-.2-4.7-4.8-4.8-12.6-.1-17.5zm0 78.6c4.9-5.1 13-5.1 18.1-.1 5.1 5 5.1 13 0 18-4.9 4.8-13.5 4.7-18.2-.2-4.5-4.6-4.5-13 .1-17.7zm.1-39.7c4.7-4.6 13.1-4.6 17.8 0 5.2 4.9 5.3 12.9.3 18-5.1 5.2-13 5.3-18.1.3-4.7-4.7-4.8-13.6 0-18.3zm86 136.5c-11.6 14.9-24.6 29-31.4 46.8-.7 1.7-6.2 2.3-6.2 2.3s-6.8.3-7.6-2.5c-6.6-22.8-25.4-39.4-38.9-58.7-2.8-4-6-7.9-8.6-13 41.5 17.6 69.1 17.8 110.2 1.3-4.6 9-11.5 16.2-17.5 23.8zm50.3-118.1c-4.9 4.9-13 4.7-18.1-.4-5.2-5.3-5.1-12.6.3-17.9 4.9-4.8 12.7-4.8 17.6-.1 4.8 4.8 4.9 13.7.2 18.4zm-.3-39.2c-4.8 4.6-13 4.7-17.8.1-4.9-4.7-5-13.3-.2-18.2 5-5.1 13.1-5.1 18.1-.1 4.9 5 4.9 13.3-.1 18.2z"/><path fill="#D39A46" d="M278.1 392.8c-109.7-181.1-105.2-191-105.2-191-21.7-54.6-1.5-104.8-1.5-104.8s19.6-51.2 64.8-66.5c-50.8 9.4-121.6 43.4-91 163.2 0 0 19.1 59.9 71 128.3 0 0 42.2 63.1 43.5 66.4l18.4 4.4z"/><path fill="#61ADA6" stroke="#61ADA6" stroke-linecap="round" stroke-linejoin="round" stroke-miterlimit="10" stroke-width="1.996" d="M304.7 388.3s-6.6 6.9-4.5 62.8l3.4 67s9 27.2 1.1 30.3c0 0-12.4 5.2-22.5 5.2s-22.5-5.2-22.5-5.2c-7.9-3.1 1.1-30.3 1.1-30.3l3.4-67c3.5-54.3-4.5-62.8-4.5-62.8s8.4 4.6 22.5 4.6c0 0 17.8-.3 22.5-4.6z"/><path fill="#42827A" stroke="#42827A" stroke-miterlimit="10" stroke-width="1.996" d="m273.3 392.3-1.8 160.1s-8.8-1.5-11.7-3.5c-1-.7-7.5-2.4-3.2-16.2 0 0 2.6-16.9 4.3-31.8 0 0 6.9-81.5 2.7-99.7l-3.7-12.8c-.1-.1 7 3.1 13.4 3.9z"/><path fill="#42827A" d="M282.3 521.9c1.9.3 3.9.4 5.8.4s3.9-.1 5.8-.4c1.9-.3 3.6-1 5.4-1.6 1.8-.6 3.4-1.4 5.3-2.3h.1v.1c-1.1 1.7-2.8 3.1-4.6 4-1.9.9-4 1.1-6 1.3-2 .1-4 .1-6-.1-2-.3-3.9-.6-5.8-1.2-.1 0-.1-.1-.1-.1 0-.1 0-.1.1-.1z"/></svg>